# Wavefront OBJ exported by MilkShape 3D

mtllib camera_front.mtl

v -3.308598 1.866102 0.591157
v -3.188153 1.866102 0.623432
v 3.188229 1.866102 0.623431
v -3.396768 1.798311 0.743874
v -3.188153 1.798311 0.799773
v 3.188229 1.798311 0.799772
v 3.396845 1.798311 0.743873
v -3.429039 1.705701 0.799773
v -3.188153 1.705701 0.864315
v 3.188229 1.705701 0.864315
v 3.429116 1.705701 0.799772
v 3.605457 1.705701 0.623431
v -3.429039 -1.676225 0.799773
v -3.188153 -1.676225 0.864315
v 3.188229 -1.676225 0.864315
v 3.429116 -1.676225 0.799772
v 3.605457 -1.676225 0.623431
v -3.396768 -1.814738 0.743874
v -3.188153 -1.814738 0.799773
v 3.188229 -1.814738 0.799772
v 3.396845 -1.814738 0.743873
v 3.549558 -1.814738 0.591156
v -3.188153 -1.870449 0.623432
v 3.188229 -1.870449 0.623431
v 3.308676 -1.870449 0.591156
v 0.821683 2.170925 0.788540
v 2.040810 2.170925 0.788540
v -0.006566 2.170925 0.788540
v -0.334441 1.705985 0.865740
v 2.347634 1.705985 0.865739
# 30 vertices

vt 0.250999 0.707336
vt 0.241716 0.696029
vt 0.263680 0.696029
vt 0.263680 0.707336
vt 0.935042 0.696029
vt 0.935042 0.707336
vt 0.957007 0.696029
vt 0.238318 0.680582
vt 0.263680 0.680582
vt 0.935042 0.680582
vt 0.960405 0.680582
vt 0.978972 0.680582
vt 0.238318 0.116507
vt 0.263680 0.116507
vt 0.935042 0.116507
vt 0.960405 0.116507
vt 0.978972 0.116507
vt 0.241716 0.093404
vt 0.263680 0.093404
vt 0.935042 0.093404
vt 0.957007 0.093404
vt 0.973086 0.093404
vt 0.263680 0.084112
vt 0.935042 0.084112
vt 0.947724 0.084112
vt 0.685871 0.758178
vt 0.598666 0.758178
vt 0.564144 0.680630
vt 0.846537 0.680630
vt 0.814232 0.758178
# 30 texture coordinates

vn -0.112310 0.965913 0.233234
vn -0.288929 0.788804 0.542502
vn -0.071004 0.785641 0.614595
vn -0.024857 0.965748 0.258288
vn 0.091937 0.785178 0.612407
vn 0.036833 0.971939 0.232331
vn 0.325358 0.788807 0.521464
vn -0.469869 0.301320 0.829716
vn -0.120969 0.296829 0.947238
vn 0.128828 0.299414 0.945386
vn 0.483616 0.301313 0.821782
vn 0.829714 0.301319 0.469874
vn -0.491562 -0.216959 0.843383
vn -0.129646 -0.215928 0.967764
vn 0.125667 -0.213778 0.968766
vn 0.484603 -0.216963 0.847400
vn 0.843378 -0.216966 0.491568
vn -0.352500 -0.754930 0.553014
vn -0.101083 -0.750295 0.653330
vn 0.072502 -0.750637 0.656725
vn 0.302682 -0.754926 0.581783
vn 0.553020 -0.754928 0.352496
vn -0.030795 -0.980561 0.193781
vn 0.020744 -0.976248 0.215662
vn 0.093743 -0.976353 0.194801
vn 0.000000 0.581628 0.813455
vn -0.594653 0.720250 0.357251
vn -0.738551 0.318270 0.594345
vn 0.345161 -0.463834 0.815918
vn 0.617069 0.695893 0.367367
# 30 normals

g Front
usemtl Front
s 1
f 1/1/1 4/2/2 5/3/3
f 1/1/1 5/3/3 2/4/4
f 2/4/4 5/3/3 6/5/5
f 2/4/4 6/5/5 3/6/6
f 3/6/6 6/5/5 7/7/7
f 4/2/2 8/8/8 9/9/9
f 4/2/2 9/9/9 5/3/3
f 5/3/3 9/9/9 10/10/10
f 5/3/3 10/10/10 6/5/5
f 6/5/5 10/10/10 11/11/11
f 6/5/5 11/11/11 7/7/7
f 7/7/7 11/11/11 12/12/12
f 8/8/8 13/13/13 14/14/14
f 8/8/8 14/14/14 9/9/9
f 9/9/9 14/14/14 15/15/15
f 9/9/9 15/15/15 10/10/10
f 10/10/10 15/15/15 16/16/16
f 10/10/10 16/16/16 11/11/11
f 11/11/11 16/16/16 17/17/17
f 11/11/11 17/17/17 12/12/12
f 13/13/13 18/18/18 19/19/19
f 13/13/13 19/19/19 14/14/14
f 14/14/14 19/19/19 20/20/20
f 14/14/14 20/20/20 15/15/15
f 15/15/15 20/20/20 21/21/21
f 15/15/15 21/21/21 16/16/16
f 16/16/16 21/21/21 22/22/22
f 16/16/16 22/22/22 17/17/17
f 18/18/18 23/23/23 19/19/19
f 19/19/19 23/23/23 24/24/24
f 19/19/19 24/24/24 20/20/20
f 20/20/20 24/24/24 25/25/25
f 20/20/20 25/25/25 21/21/21
f 26/26/26 28/27/27 29/28/28
f 26/26/26 30/29/29 27/30/30
f 29/28/28 30/29/29 26/26/26
# 36 triangles in group

# 36 triangles total

